mtllib diag.mtl
o Model
v 0.750000 0.000000 0.000000
v 0.750000 0.000000 0.125000
v 0.875000 0.000000 0.000000
v 0.875000 0.000000 0.125000
v 1.000000 0.125000 0.000000
v 1.000000 0.125000 0.125000
v 1.000000 0.250000 0.000000
v 1.000000 0.250000 0.125000
vn 0.0000 -1.0000 0.0000
vn 0.7071 -0.7071 0.0000
vn 0.0000 0.0000 -1.0000
vn 0.0000 0.0000 1.0000
vn 1.0000 0.0000 0.0000
vn -0.7071 0.7071 0.0000
vt 0.000000 0.125000
vt 0.000000 0.250000
vt 0.125000 0.000000
vt 0.250000 0.000000
vt 0.750000 0.375000
vt 0.750000 0.500000
vt 0.875000 0.500000
vt 0.875000 0.625000
vt 1.000000 0.375000
vt 1.000000 0.500000
vt 1.000000 0.625000
usemtl Material
f 1/11/1 3/8/1 4/7/1 2/10/1
f 3/11/2 5/8/2 6/7/2 4/10/2
f 1/6/6 2/5/6 8/9/6 7/10/6
f 5/11/5 7/8/5 8/7/5 6/10/5
usemtl MaterialSide
f 1/2/3 7/4/3 5/3/3 3/1/3
f 2/2/4 4/1/4 6/3/4 8/4/4
