mtllib diag.mtl
o Model
v 0.125000 0.000000 0.000000
v 0.125000 0.000000 0.125000
v 0.250000 0.000000 0.000000
v 0.250000 0.000000 0.125000
v 1.000000 0.750000 0.000000
v 1.000000 0.750000 0.125000
v 1.000000 0.875000 0.000000
v 1.000000 0.875000 0.125000
vn 0.0000 -1.0000 0.0000
vn 0.7071 -0.7071 0.0000
vn 0.0000 0.0000 -1.0000
vn 0.0000 0.0000 1.0000
vn 1.0000 0.0000 0.0000
vn -0.7071 0.7071 0.0000
vt 0.000000 0.375000
vt 0.000000 0.500000
vt 0.000000 0.625000
vt 0.000000 0.750000
vt 0.000000 0.875000
vt 0.750000 0.000000
vt 0.750000 0.375000
vt 0.750000 0.500000
vt 0.875000 0.000000
vt 0.875000 0.500000
vt 0.875000 0.625000
vt 0.875000 0.750000
vt 1.000000 0.500000
vt 1.000000 0.625000
usemtl Material
f 1/14/1 3/11/1 4/10/1 2/13/1
f 3/8/2 5/2/2 6/1/2 4/7/2
f 1/4/6 2/3/6 8/11/6 7/12/6
f 5/14/5 7/11/5 8/10/5 6/13/5
usemtl MaterialSide
f 1/5/3 7/9/3 5/6/3 3/4/3
f 2/5/4 4/4/4 6/6/4 8/9/4
